<?xml version="1.0" encoding="UTF-8" standalone="no"?>
<svg
   xmlns:dc="http://purl.org/dc/elements/1.1/"
   xmlns:cc="http://creativecommons.org/ns#"
   xmlns:rdf="http://www.w3.org/1999/02/22-rdf-syntax-ns#"
   xmlns:svg="http://www.w3.org/2000/svg"
   xmlns="http://www.w3.org/2000/svg"
   xmlns:sodipodi="http://sodipodi.sourceforge.net/DTD/sodipodi-0.dtd"
   xmlns:inkscape="http://www.inkscape.org/namespaces/inkscape"
   version="1.1"
   id="svg41117"
   viewBox="0 0 200 200"
   height="200"
   width="200"
   preserveAspectRatio="xMidYMid"
   sodipodi:docname="ps.svg"
   inkscape:version="1.0.2 (e86c870879, 2021-01-15)">
  <sodipodi:namedview
     pagecolor="#ffffff"
     bordercolor="#666666"
     borderopacity="1"
     objecttolerance="10"
     gridtolerance="10"
     guidetolerance="10"
     inkscape:pageopacity="0"
     inkscape:pageshadow="2"
     inkscape:window-width="1920"
     inkscape:window-height="1019"
     id="namedview7"
     showgrid="false"
     inkscape:zoom="1.9519857"
     inkscape:cx="231.5148"
     inkscape:cy="121.47008"
     inkscape:window-x="0"
     inkscape:window-y="30"
     inkscape:window-maximized="1"
     inkscape:current-layer="svg41117"
     inkscape:document-rotation="0"
     inkscape:pagecheckerboard="true" />
  <metadata
     id="metadata41126">
    <rdf:RDF>
      <cc:Work
         rdf:about="">
        <dc:format>image/svg+xml</dc:format>
        <dc:type
           rdf:resource="http://purl.org/dc/dcmitype/StillImage" />
        <dc:title></dc:title>
      </cc:Work>
    </rdf:RDF>
  </metadata>
  <defs
     id="defs41119">
    <style
       id="style41121">

      .cls-2 {
        fill: #ffffff;
      }
    </style>
  </defs>
  <path
     style="fill:#1f1f1f;fill-opacity:1;fill-rule:evenodd"
     class="cls-2"
     id="path-1"
     d="m 197.23914,140.55238 c -3.8677,4.8796 -13.34356,8.36053 -13.34356,8.36053 l -70.49109,25.31994 v -18.67289 l 51.87665,-18.48401 c 5.887,-2.10924 6.79096,-5.09097 2.00581,-6.65604 -4.77616,-1.56957 -13.42451,-1.11983 -19.31601,0.99841 l -34.56645,12.17426 V 124.2136 l 1.99232,-0.6746 c 0,0 9.98856,-3.5349 24.03371,-5.09097 14.04515,-1.54708 31.24291,0.21137 44.74389,5.32933 15.21445,4.80764 16.92793,11.89543 13.06473,16.77502 z M 120.11451,108.75629 V 61.003692 c 0,-5.608163 -1.03439,-10.771093 -6.29626,-12.232725 -4.0296,-1.290734 -6.53012,2.45104 -6.53012,8.054706 V 176.40956 L 75.037817,166.17365 V 23.59044 c 13.712343,2.54549 33.689453,8.56291 44.429073,12.18326 27.31226,9.376917 36.57225,21.047482 36.57225,47.343343 0,25.630257 -15.82159,35.344477 -35.92463,25.639247 z M 15.862005,153.60812 C 0.24279387,149.20974 -2.3566602,140.04419 4.7626059,134.76433 c 6.5795881,-4.8751 17.7689331,-8.54492 17.7689331,-8.54492 l 46.241498,-16.44222 v 18.74485 l -33.275709,11.90892 c -5.878004,2.10924 -6.781967,5.09547 -2.005807,6.66054 4.780657,1.56506 13.433512,1.11983 19.320511,-0.99391 l 15.961005,-5.79256 v 16.77053 c -1.011893,0.17989 -2.140724,0.35978 -3.184104,0.53518 -15.965505,2.60845 -32.969893,1.5201 -49.726928,-4.00262 z"
     sodipodi:nodetypes="ccccccccccccccscsccccsccccccccccccc" />
</svg>
